<svg xmlns="http://www.w3.org/2000/svg" xmlns:xlink="http://www.w3.org/1999/xlink" width="162" zoomAndPan="magnify" viewBox="0 0 121.5 121.499994" height="162" preserveAspectRatio="xMidYMid meet" version="1.0"><defs><clipPath id="7411a7f8a2"><path d="M 0 0 L 121.003906 0 L 121.003906 121.003906 L 0 121.003906 Z M 0 0 " clip-rule="nonzero"/></clipPath><clipPath id="24acc26438"><path d="M 64.511719 64.511719 L 118.585938 64.511719 L 118.585938 118.585938 L 64.511719 118.585938 Z M 64.511719 64.511719 " clip-rule="nonzero"/></clipPath><clipPath id="126d6adad6"><path d="M 91.550781 64.511719 C 76.617188 64.511719 64.511719 76.617188 64.511719 91.550781 C 64.511719 106.480469 76.617188 118.585938 91.550781 118.585938 C 106.480469 118.585938 118.585938 106.480469 118.585938 91.550781 C 118.585938 76.617188 106.480469 64.511719 91.550781 64.511719 Z M 91.550781 64.511719 " clip-rule="nonzero"/></clipPath><clipPath id="af7eca9ebd"><path d="M 2.414062 2.414062 L 55.773438 2.414062 L 55.773438 55.773438 L 2.414062 55.773438 Z M 2.414062 2.414062 " clip-rule="nonzero"/></clipPath><clipPath id="2d5ddbfdb2"><path d="M 29.09375 2.414062 C 14.359375 2.414062 2.414062 14.359375 2.414062 29.09375 C 2.414062 43.828125 14.359375 55.773438 29.09375 55.773438 C 43.828125 55.773438 55.773438 43.828125 55.773438 29.09375 C 55.773438 14.359375 43.828125 2.414062 29.09375 2.414062 Z M 29.09375 2.414062 " clip-rule="nonzero"/></clipPath></defs><g clip-path="url(#7411a7f8a2)"><path fill="#ffffff" d="M 0 0 L 121.003906 0 L 121.003906 121.003906 L 0 121.003906 Z M 0 0 " fill-opacity="1" fill-rule="nonzero"/><path stroke-linecap="round" transform="matrix(0.528157, -0.528157, 0.528157, 0.528157, 0.583613, 113.019284)" fill="none" stroke-linejoin="miter" d="M 6.99859 6.999058 L 205.888333 7.002756 " stroke="#3d84a8" stroke-width="14" stroke-opacity="1" stroke-miterlimit="4"/></g><g clip-path="url(#24acc26438)"><g clip-path="url(#126d6adad6)"><path fill="#3d84a8" d="M 64.511719 64.511719 L 118.585938 64.511719 L 118.585938 118.585938 L 64.511719 118.585938 Z M 64.511719 64.511719 " fill-opacity="1" fill-rule="nonzero"/></g></g><g clip-path="url(#af7eca9ebd)"><g clip-path="url(#2d5ddbfdb2)"><path fill="#3d84a8" d="M 2.414062 2.414062 L 55.773438 2.414062 L 55.773438 55.773438 L 2.414062 55.773438 Z M 2.414062 2.414062 " fill-opacity="1" fill-rule="nonzero"/></g></g></svg>