<svg xmlns="http://www.w3.org/2000/svg" xmlns:xlink="http://www.w3.org/1999/xlink" width="531" zoomAndPan="magnify" viewBox="0 0 398.25 171.000002" height="228" preserveAspectRatio="xMidYMid meet" version="1.0"><defs><g/><clipPath id="af555f21e5"><path d="M 0.785156 0 L 396.71875 0 L 396.71875 170.003906 L 0.785156 170.003906 Z M 0.785156 0 " clip-rule="nonzero"/></clipPath><clipPath id="a79921b6c9"><path d="M 0.785156 4 L 103 4 L 103 140 L 0.785156 140 Z M 0.785156 4 " clip-rule="nonzero"/></clipPath><clipPath id="fccc02a544"><path d="M 38.585938 74.488281 L 70.382812 74.488281 L 70.382812 107.152344 L 38.585938 107.152344 Z M 38.585938 74.488281 " clip-rule="nonzero"/></clipPath><clipPath id="798c8d8dcc"><path d="M 54.484375 74.488281 C 45.703125 74.488281 38.585938 81.773438 38.585938 90.765625 C 38.585938 99.753906 45.703125 107.042969 54.484375 107.042969 C 63.265625 107.042969 70.382812 99.753906 70.382812 90.765625 C 70.382812 81.773438 63.265625 74.488281 54.484375 74.488281 Z M 54.484375 74.488281 " clip-rule="nonzero"/></clipPath><clipPath id="8dd7b2bdad"><path d="M 2.074219 37.105469 L 33.449219 37.105469 L 33.449219 69.335938 L 2.074219 69.335938 Z M 2.074219 37.105469 " clip-rule="nonzero"/></clipPath><clipPath id="f3b1bb67bf"><path d="M 17.761719 37.105469 C 9.097656 37.105469 2.074219 44.296875 2.074219 53.164062 C 2.074219 62.035156 9.097656 69.226562 17.761719 69.226562 C 26.425781 69.226562 33.449219 62.035156 33.449219 53.164062 C 33.449219 44.296875 26.425781 37.105469 17.761719 37.105469 Z M 17.761719 37.105469 " clip-rule="nonzero"/></clipPath></defs><g clip-path="url(#af555f21e5)"><path fill="#ffffff" d="M 0.785156 0 L 396.71875 0 L 396.71875 170.003906 L 0.785156 170.003906 Z M 0.785156 0 " fill-opacity="1" fill-rule="nonzero"/></g><g fill="#3d84a8" fill-opacity="1"><g transform="translate(75.344449, 108.41991)"><g><path d="M 5.25 -72.09375 L 31.546875 -72.09375 C 38.890625 -72.09375 44.832031 -70.195312 49.375 -66.40625 C 53.914062 -62.625 56.1875 -57.117188 56.1875 -49.890625 C 56.1875 -42.671875 53.882812 -37.003906 49.28125 -32.890625 C 44.6875 -28.785156 38.773438 -26.734375 31.546875 -26.734375 L 21.671875 -26.734375 L 21.671875 0 L 5.25 0 Z M 21.671875 -39.84375 L 26.296875 -39.84375 C 29.972656 -39.84375 32.988281 -40.585938 35.34375 -42.078125 C 37.707031 -43.566406 38.890625 -46 38.890625 -49.375 C 38.890625 -52.8125 37.707031 -55.269531 35.34375 -56.75 C 32.988281 -58.238281 29.972656 -58.984375 26.296875 -58.984375 L 21.671875 -58.984375 Z M 21.671875 -39.84375 "/></g></g></g><g fill="#3d84a8" fill-opacity="1"><g transform="translate(142.268673, 108.41991)"><g><path d="M 43.609375 -14.859375 C 46.109375 -14.859375 48.535156 -15.234375 50.890625 -15.984375 C 53.253906 -16.742188 54.992188 -17.472656 56.109375 -18.171875 L 57.765625 -19.3125 L 64.75 -5.328125 C 64.519531 -5.148438 64.203125 -4.914062 63.796875 -4.625 C 63.390625 -4.332031 62.441406 -3.789062 60.953125 -3 C 59.460938 -2.21875 57.875 -1.535156 56.1875 -0.953125 C 54.5 -0.378906 52.285156 0.140625 49.546875 0.609375 C 46.804688 1.078125 43.984375 1.3125 41.078125 1.3125 C 34.378906 1.3125 28.023438 -0.332031 22.015625 -3.625 C 16.015625 -6.914062 11.179688 -11.445312 7.515625 -17.21875 C 3.847656 -22.988281 2.015625 -29.222656 2.015625 -35.921875 C 2.015625 -40.984375 3.09375 -45.84375 5.25 -50.5 C 7.40625 -55.164062 10.269531 -59.160156 13.84375 -62.484375 C 17.425781 -65.804688 21.609375 -68.457031 26.390625 -70.4375 C 31.171875 -72.414062 36.066406 -73.40625 41.078125 -73.40625 C 45.734375 -73.40625 50.023438 -72.851562 53.953125 -71.75 C 57.890625 -70.644531 60.675781 -69.535156 62.3125 -68.421875 L 64.75 -66.765625 L 57.765625 -52.78125 C 57.359375 -53.132812 56.742188 -53.554688 55.921875 -54.046875 C 55.109375 -54.546875 53.476562 -55.203125 51.03125 -56.015625 C 48.582031 -56.828125 46.109375 -57.234375 43.609375 -57.234375 C 39.648438 -57.234375 36.097656 -56.59375 32.953125 -55.3125 C 29.804688 -54.03125 27.3125 -52.34375 25.46875 -50.25 C 23.632812 -48.15625 22.238281 -45.894531 21.28125 -43.46875 C 20.320312 -41.050781 19.84375 -38.59375 19.84375 -36.09375 C 19.84375 -30.613281 21.894531 -25.703125 26 -21.359375 C 30.101562 -17.023438 35.972656 -14.859375 43.609375 -14.859375 Z M 43.609375 -14.859375 "/></g></g></g><g fill="#3d84a8" fill-opacity="1"><g transform="translate(216.793684, 108.41991)"><g><path d="M 5.25 -72.09375 L 31.03125 -72.09375 C 37.957031 -72.09375 43.601562 -70.242188 47.96875 -66.546875 C 52.34375 -62.847656 54.53125 -57.5625 54.53125 -50.6875 C 54.53125 -45.382812 53.203125 -40.941406 50.546875 -37.359375 C 47.898438 -33.773438 44.304688 -31.253906 39.765625 -29.796875 L 64.578125 0 L 43.703125 0 L 21.671875 -28.484375 L 21.671875 0 L 5.25 0 Z M 21.671875 -40.109375 L 23.59375 -40.109375 C 25.113281 -40.109375 26.394531 -40.132812 27.4375 -40.1875 C 28.488281 -40.25 29.679688 -40.453125 31.015625 -40.796875 C 32.359375 -41.148438 33.4375 -41.648438 34.25 -42.296875 C 35.070312 -42.941406 35.773438 -43.875 36.359375 -45.09375 C 36.941406 -46.3125 37.234375 -47.796875 37.234375 -49.546875 C 37.234375 -51.296875 36.941406 -52.78125 36.359375 -54 C 35.773438 -55.226562 35.070312 -56.160156 34.25 -56.796875 C 33.4375 -57.441406 32.359375 -57.9375 31.015625 -58.28125 C 29.679688 -58.632812 28.488281 -58.835938 27.4375 -58.890625 C 26.394531 -58.953125 25.113281 -58.984375 23.59375 -58.984375 L 21.671875 -58.984375 Z M 21.671875 -40.109375 "/></g></g></g><g fill="#3d84a8" fill-opacity="1"><g transform="translate(288.086175, 108.41991)"><g><path d="M 43.609375 -14.859375 C 46.109375 -14.859375 48.535156 -15.234375 50.890625 -15.984375 C 53.253906 -16.742188 54.992188 -17.472656 56.109375 -18.171875 L 57.765625 -19.3125 L 64.75 -5.328125 C 64.519531 -5.148438 64.203125 -4.914062 63.796875 -4.625 C 63.390625 -4.332031 62.441406 -3.789062 60.953125 -3 C 59.460938 -2.21875 57.875 -1.535156 56.1875 -0.953125 C 54.5 -0.378906 52.285156 0.140625 49.546875 0.609375 C 46.804688 1.078125 43.984375 1.3125 41.078125 1.3125 C 34.378906 1.3125 28.023438 -0.332031 22.015625 -3.625 C 16.015625 -6.914062 11.179688 -11.445312 7.515625 -17.21875 C 3.847656 -22.988281 2.015625 -29.222656 2.015625 -35.921875 C 2.015625 -40.984375 3.09375 -45.84375 5.25 -50.5 C 7.40625 -55.164062 10.269531 -59.160156 13.84375 -62.484375 C 17.425781 -65.804688 21.609375 -68.457031 26.390625 -70.4375 C 31.171875 -72.414062 36.066406 -73.40625 41.078125 -73.40625 C 45.734375 -73.40625 50.023438 -72.851562 53.953125 -71.75 C 57.890625 -70.644531 60.675781 -69.535156 62.3125 -68.421875 L 64.75 -66.765625 L 57.765625 -52.78125 C 57.359375 -53.132812 56.742188 -53.554688 55.921875 -54.046875 C 55.109375 -54.546875 53.476562 -55.203125 51.03125 -56.015625 C 48.582031 -56.828125 46.109375 -57.234375 43.609375 -57.234375 C 39.648438 -57.234375 36.097656 -56.59375 32.953125 -55.3125 C 29.804688 -54.03125 27.3125 -52.34375 25.46875 -50.25 C 23.632812 -48.15625 22.238281 -45.894531 21.28125 -43.46875 C 20.320312 -41.050781 19.84375 -38.59375 19.84375 -36.09375 C 19.84375 -30.613281 21.894531 -25.703125 26 -21.359375 C 30.101562 -17.023438 35.972656 -14.859375 43.609375 -14.859375 Z M 43.609375 -14.859375 "/></g></g></g><g fill="#3d84a8" fill-opacity="1"><g transform="translate(82.174179, 132.803578)"><g><path d="M 6.421875 0.171875 C 5.335938 0.171875 4.382812 -0.0507812 3.5625 -0.5 C 2.738281 -0.957031 2.09375 -1.632812 1.625 -2.53125 C 1.15625 -3.4375 0.921875 -4.550781 0.921875 -5.875 C 0.921875 -7.195312 1.15625 -8.304688 1.625 -9.203125 C 2.09375 -10.109375 2.738281 -10.785156 3.5625 -11.234375 C 4.382812 -11.679688 5.335938 -11.90625 6.421875 -11.90625 C 7.546875 -11.90625 8.503906 -11.6875 9.296875 -11.25 C 10.085938 -10.8125 10.648438 -10.140625 10.984375 -9.234375 L 9.296875 -8.1875 L 9.09375 -8.203125 C 8.84375 -8.816406 8.5 -9.253906 8.0625 -9.515625 C 7.632812 -9.773438 7.085938 -9.90625 6.421875 -9.90625 C 5.441406 -9.90625 4.675781 -9.582031 4.125 -8.9375 C 3.582031 -8.300781 3.3125 -7.28125 3.3125 -5.875 C 3.3125 -4.476562 3.582031 -3.457031 4.125 -2.8125 C 4.675781 -2.164062 5.441406 -1.84375 6.421875 -1.84375 C 7.941406 -1.84375 8.875 -2.582031 9.21875 -4.0625 L 9.421875 -4.0625 L 11.140625 -3.171875 C 10.816406 -2.054688 10.265625 -1.21875 9.484375 -0.65625 C 8.710938 -0.101562 7.691406 0.171875 6.421875 0.171875 Z M 6.421875 0.171875 "/></g></g></g><g fill="#3d84a8" fill-opacity="1"><g transform="translate(93.697247, 132.803578)"><g><path d="M 3.453125 0.171875 C 2.890625 0.171875 2.394531 0.0664062 1.96875 -0.140625 C 1.550781 -0.347656 1.226562 -0.65625 1 -1.0625 C 0.78125 -1.46875 0.671875 -1.953125 0.671875 -2.515625 C 0.671875 -3.046875 0.78125 -3.488281 1 -3.84375 C 1.226562 -4.195312 1.578125 -4.488281 2.046875 -4.71875 C 2.523438 -4.945312 3.144531 -5.125 3.90625 -5.25 C 4.4375 -5.332031 4.835938 -5.425781 5.109375 -5.53125 C 5.390625 -5.632812 5.578125 -5.75 5.671875 -5.875 C 5.765625 -6 5.8125 -6.160156 5.8125 -6.359375 C 5.8125 -6.640625 5.710938 -6.851562 5.515625 -7 C 5.316406 -7.15625 4.988281 -7.234375 4.53125 -7.234375 C 4.039062 -7.234375 3.570312 -7.125 3.125 -6.90625 C 2.675781 -6.6875 2.289062 -6.398438 1.96875 -6.046875 L 1.8125 -6.046875 L 0.875 -7.453125 C 1.320312 -7.941406 1.867188 -8.328125 2.515625 -8.609375 C 3.171875 -8.890625 3.878906 -9.03125 4.640625 -9.03125 C 5.816406 -9.03125 6.664062 -8.78125 7.1875 -8.28125 C 7.71875 -7.78125 7.984375 -7.070312 7.984375 -6.15625 L 7.984375 -2.3125 C 7.984375 -1.914062 8.15625 -1.71875 8.5 -1.71875 C 8.632812 -1.71875 8.765625 -1.742188 8.890625 -1.796875 L 9 -1.765625 L 9.171875 -0.203125 C 9.046875 -0.128906 8.875 -0.0664062 8.65625 -0.015625 C 8.4375 0.0351562 8.191406 0.0625 7.921875 0.0625 C 7.398438 0.0625 6.988281 -0.0351562 6.6875 -0.234375 C 6.394531 -0.441406 6.179688 -0.765625 6.046875 -1.203125 L 5.875 -1.21875 C 5.445312 -0.289062 4.640625 0.171875 3.453125 0.171875 Z M 4.15625 -1.5 C 4.675781 -1.5 5.085938 -1.671875 5.390625 -2.015625 C 5.703125 -2.359375 5.859375 -2.835938 5.859375 -3.453125 L 5.859375 -4.359375 L 5.703125 -4.390625 C 5.566406 -4.273438 5.390625 -4.179688 5.171875 -4.109375 C 4.960938 -4.046875 4.648438 -3.976562 4.234375 -3.90625 C 3.753906 -3.820312 3.410156 -3.679688 3.203125 -3.484375 C 2.992188 -3.296875 2.890625 -3.019531 2.890625 -2.65625 C 2.890625 -2.28125 3 -1.992188 3.21875 -1.796875 C 3.445312 -1.597656 3.757812 -1.5 4.15625 -1.5 Z M 4.15625 -1.5 "/></g></g></g><g fill="#3d84a8" fill-opacity="1"><g transform="translate(103.042665, 132.803578)"><g><path d="M 3.671875 0.171875 C 2.878906 0.171875 2.269531 -0.0390625 1.84375 -0.46875 C 1.425781 -0.90625 1.21875 -1.5625 1.21875 -2.4375 L 1.21875 -12.421875 L 3.453125 -12.421875 L 3.453125 -2.53125 C 3.453125 -1.988281 3.675781 -1.71875 4.125 -1.71875 C 4.25 -1.71875 4.382812 -1.738281 4.53125 -1.78125 L 4.640625 -1.75 L 4.84375 -0.046875 C 4.71875 0.0234375 4.550781 0.078125 4.34375 0.109375 C 4.144531 0.148438 3.921875 0.171875 3.671875 0.171875 Z M 3.671875 0.171875 "/></g></g></g><g fill="#3d84a8" fill-opacity="1"><g transform="translate(108.137244, 132.803578)"><g><path d="M 5.171875 0.171875 C 4.304688 0.171875 3.546875 -0.00390625 2.890625 -0.359375 C 2.234375 -0.722656 1.71875 -1.25 1.34375 -1.9375 C 0.976562 -2.625 0.796875 -3.453125 0.796875 -4.421875 C 0.796875 -5.398438 0.976562 -6.234375 1.34375 -6.921875 C 1.71875 -7.617188 2.226562 -8.144531 2.875 -8.5 C 3.53125 -8.851562 4.28125 -9.03125 5.125 -9.03125 C 6.988281 -9.03125 8.1875 -8.351562 8.71875 -7 L 7.1875 -5.90625 L 7.015625 -5.90625 C 6.835938 -6.320312 6.601562 -6.628906 6.3125 -6.828125 C 6.019531 -7.035156 5.625 -7.140625 5.125 -7.140625 C 4.476562 -7.140625 3.972656 -6.914062 3.609375 -6.46875 C 3.253906 -6.03125 3.078125 -5.347656 3.078125 -4.421875 C 3.078125 -3.515625 3.257812 -2.835938 3.625 -2.390625 C 3.988281 -1.941406 4.503906 -1.71875 5.171875 -1.71875 C 5.648438 -1.71875 6.054688 -1.847656 6.390625 -2.109375 C 6.722656 -2.367188 6.960938 -2.742188 7.109375 -3.234375 L 7.28125 -3.25 L 8.859375 -2.375 C 8.640625 -1.625 8.222656 -1.007812 7.609375 -0.53125 C 7.003906 -0.0625 6.191406 0.171875 5.171875 0.171875 Z M 5.171875 0.171875 "/></g></g></g><g fill="#3d84a8" fill-opacity="1"><g transform="translate(117.273735, 132.803578)"><g><path d="M 4.0625 0.171875 C 3.0625 0.171875 2.320312 -0.0976562 1.84375 -0.640625 C 1.375 -1.191406 1.140625 -1.972656 1.140625 -2.984375 L 1.140625 -8.859375 L 3.359375 -8.859375 L 3.359375 -3.265625 C 3.359375 -2.722656 3.472656 -2.328125 3.703125 -2.078125 C 3.941406 -1.835938 4.304688 -1.71875 4.796875 -1.71875 C 5.410156 -1.71875 5.890625 -1.914062 6.234375 -2.3125 C 6.578125 -2.71875 6.75 -3.351562 6.75 -4.21875 L 6.75 -8.859375 L 8.96875 -8.859375 L 8.96875 0 L 6.84375 0 L 6.84375 -1.296875 L 6.671875 -1.34375 C 6.390625 -0.832031 6.039062 -0.453125 5.625 -0.203125 C 5.21875 0.046875 4.695312 0.171875 4.0625 0.171875 Z M 4.0625 0.171875 "/></g></g></g><g fill="#3d84a8" fill-opacity="1"><g transform="translate(127.527177, 132.803578)"><g><path d="M 3.671875 0.171875 C 2.878906 0.171875 2.269531 -0.0390625 1.84375 -0.46875 C 1.425781 -0.90625 1.21875 -1.5625 1.21875 -2.4375 L 1.21875 -12.421875 L 3.453125 -12.421875 L 3.453125 -2.53125 C 3.453125 -1.988281 3.675781 -1.71875 4.125 -1.71875 C 4.25 -1.71875 4.382812 -1.738281 4.53125 -1.78125 L 4.640625 -1.75 L 4.84375 -0.046875 C 4.71875 0.0234375 4.550781 0.078125 4.34375 0.109375 C 4.144531 0.148438 3.921875 0.171875 3.671875 0.171875 Z M 3.671875 0.171875 "/></g></g></g><g fill="#3d84a8" fill-opacity="1"><g transform="translate(132.621756, 132.803578)"><g><path d="M 3.453125 0.171875 C 2.890625 0.171875 2.394531 0.0664062 1.96875 -0.140625 C 1.550781 -0.347656 1.226562 -0.65625 1 -1.0625 C 0.78125 -1.46875 0.671875 -1.953125 0.671875 -2.515625 C 0.671875 -3.046875 0.78125 -3.488281 1 -3.84375 C 1.226562 -4.195312 1.578125 -4.488281 2.046875 -4.71875 C 2.523438 -4.945312 3.144531 -5.125 3.90625 -5.25 C 4.4375 -5.332031 4.835938 -5.425781 5.109375 -5.53125 C 5.390625 -5.632812 5.578125 -5.75 5.671875 -5.875 C 5.765625 -6 5.8125 -6.160156 5.8125 -6.359375 C 5.8125 -6.640625 5.710938 -6.851562 5.515625 -7 C 5.316406 -7.15625 4.988281 -7.234375 4.53125 -7.234375 C 4.039062 -7.234375 3.570312 -7.125 3.125 -6.90625 C 2.675781 -6.6875 2.289062 -6.398438 1.96875 -6.046875 L 1.8125 -6.046875 L 0.875 -7.453125 C 1.320312 -7.941406 1.867188 -8.328125 2.515625 -8.609375 C 3.171875 -8.890625 3.878906 -9.03125 4.640625 -9.03125 C 5.816406 -9.03125 6.664062 -8.78125 7.1875 -8.28125 C 7.71875 -7.78125 7.984375 -7.070312 7.984375 -6.15625 L 7.984375 -2.3125 C 7.984375 -1.914062 8.15625 -1.71875 8.5 -1.71875 C 8.632812 -1.71875 8.765625 -1.742188 8.890625 -1.796875 L 9 -1.765625 L 9.171875 -0.203125 C 9.046875 -0.128906 8.875 -0.0664062 8.65625 -0.015625 C 8.4375 0.0351562 8.191406 0.0625 7.921875 0.0625 C 7.398438 0.0625 6.988281 -0.0351562 6.6875 -0.234375 C 6.394531 -0.441406 6.179688 -0.765625 6.046875 -1.203125 L 5.875 -1.21875 C 5.445312 -0.289062 4.640625 0.171875 3.453125 0.171875 Z M 4.15625 -1.5 C 4.675781 -1.5 5.085938 -1.671875 5.390625 -2.015625 C 5.703125 -2.359375 5.859375 -2.835938 5.859375 -3.453125 L 5.859375 -4.359375 L 5.703125 -4.390625 C 5.566406 -4.273438 5.390625 -4.179688 5.171875 -4.109375 C 4.960938 -4.046875 4.648438 -3.976562 4.234375 -3.90625 C 3.753906 -3.820312 3.410156 -3.679688 3.203125 -3.484375 C 2.992188 -3.296875 2.890625 -3.019531 2.890625 -2.65625 C 2.890625 -2.28125 3 -1.992188 3.21875 -1.796875 C 3.445312 -1.597656 3.757812 -1.5 4.15625 -1.5 Z M 4.15625 -1.5 "/></g></g></g><g fill="#3d84a8" fill-opacity="1"><g transform="translate(141.967173, 132.803578)"><g><path d="M 6.109375 -2.109375 L 6.6875 -0.46875 C 6.445312 -0.269531 6.144531 -0.113281 5.78125 0 C 5.414062 0.113281 5.003906 0.171875 4.546875 0.171875 C 3.585938 0.171875 2.859375 -0.0859375 2.359375 -0.609375 C 1.859375 -1.128906 1.609375 -1.890625 1.609375 -2.890625 L 1.609375 -7.109375 L 0.265625 -7.109375 L 0.265625 -8.875 L 1.609375 -8.875 L 1.609375 -10.59375 L 3.84375 -10.953125 L 3.84375 -8.875 L 6.359375 -8.875 L 6.359375 -7.109375 L 3.84375 -7.109375 L 3.84375 -3.046875 C 3.84375 -2.609375 3.929688 -2.289062 4.109375 -2.09375 C 4.296875 -1.894531 4.5625 -1.796875 4.90625 -1.796875 C 5.300781 -1.796875 5.644531 -1.898438 5.9375 -2.109375 Z M 6.109375 -2.109375 "/></g></g></g><g fill="#3d84a8" fill-opacity="1"><g transform="translate(148.853694, 132.803578)"><g><path d="M 8.75 -3.921875 L 3.0625 -3.921875 C 3.125 -3.148438 3.34375 -2.585938 3.71875 -2.234375 C 4.09375 -1.890625 4.601562 -1.71875 5.25 -1.71875 C 5.757812 -1.71875 6.171875 -1.8125 6.484375 -2 C 6.804688 -2.195312 7.0625 -2.488281 7.25 -2.875 L 7.421875 -2.875 L 8.90625 -1.921875 C 8.613281 -1.296875 8.175781 -0.789062 7.59375 -0.40625 C 7.007812 -0.0195312 6.226562 0.171875 5.25 0.171875 C 4.332031 0.171875 3.539062 0 2.875 -0.34375 C 2.207031 -0.695312 1.691406 -1.21875 1.328125 -1.90625 C 0.972656 -2.59375 0.796875 -3.429688 0.796875 -4.421875 C 0.796875 -5.429688 0.984375 -6.28125 1.359375 -6.96875 C 1.742188 -7.664062 2.257812 -8.179688 2.90625 -8.515625 C 3.550781 -8.859375 4.28125 -9.03125 5.09375 -9.03125 C 6.34375 -9.03125 7.300781 -8.695312 7.96875 -8.03125 C 8.632812 -7.363281 8.96875 -6.390625 8.96875 -5.109375 C 8.96875 -4.640625 8.953125 -4.28125 8.921875 -4.03125 Z M 6.84375 -5.359375 C 6.820312 -6.035156 6.664062 -6.523438 6.375 -6.828125 C 6.082031 -7.140625 5.65625 -7.296875 5.09375 -7.296875 C 3.96875 -7.296875 3.304688 -6.648438 3.109375 -5.359375 Z M 6.84375 -5.359375 "/></g></g></g><g fill="#3d84a8" fill-opacity="1"><g transform="translate(158.488394, 132.803578)"><g/></g></g><g fill="#3d84a8" fill-opacity="1"><g transform="translate(162.369594, 132.803578)"><g><path d="M 1.28125 3.59375 L 1.28125 -8.859375 L 3.5 -8.859375 L 3.5 -7.703125 L 3.671875 -7.671875 C 3.929688 -8.117188 4.28125 -8.457031 4.71875 -8.6875 C 5.15625 -8.914062 5.671875 -9.03125 6.265625 -9.03125 C 6.972656 -9.03125 7.59375 -8.859375 8.125 -8.515625 C 8.664062 -8.179688 9.082031 -7.671875 9.375 -6.984375 C 9.675781 -6.296875 9.828125 -5.441406 9.828125 -4.421875 C 9.828125 -3.410156 9.671875 -2.5625 9.359375 -1.875 C 9.046875 -1.195312 8.609375 -0.6875 8.046875 -0.34375 C 7.492188 0 6.851562 0.171875 6.125 0.171875 C 5.570312 0.171875 5.09375 0.078125 4.6875 -0.109375 C 4.289062 -0.296875 3.953125 -0.582031 3.671875 -0.96875 L 3.5 -0.9375 L 3.5 3.59375 Z M 5.5 -1.71875 C 6.164062 -1.71875 6.671875 -1.929688 7.015625 -2.359375 C 7.359375 -2.796875 7.53125 -3.484375 7.53125 -4.421875 C 7.53125 -5.359375 7.359375 -6.046875 7.015625 -6.484375 C 6.671875 -6.921875 6.164062 -7.140625 5.5 -7.140625 C 4.882812 -7.140625 4.394531 -6.914062 4.03125 -6.46875 C 3.664062 -6.019531 3.484375 -5.335938 3.484375 -4.421875 C 3.484375 -3.515625 3.664062 -2.835938 4.03125 -2.390625 C 4.394531 -1.941406 4.882812 -1.71875 5.5 -1.71875 Z M 5.5 -1.71875 "/></g></g></g><g fill="#3d84a8" fill-opacity="1"><g transform="translate(172.984639, 132.803578)"><g><path d="M 1.28125 0 L 1.28125 -8.859375 L 3.4375 -8.859375 L 3.4375 -7.546875 L 3.609375 -7.515625 C 3.816406 -8.003906 4.09375 -8.363281 4.4375 -8.59375 C 4.789062 -8.820312 5.21875 -8.9375 5.71875 -8.9375 C 6.21875 -8.9375 6.601562 -8.851562 6.875 -8.6875 L 6.484375 -6.765625 L 6.328125 -6.734375 C 6.179688 -6.796875 6.039062 -6.835938 5.90625 -6.859375 C 5.769531 -6.890625 5.609375 -6.90625 5.421875 -6.90625 C 4.796875 -6.90625 4.316406 -6.6875 3.984375 -6.25 C 3.660156 -5.8125 3.5 -5.109375 3.5 -4.140625 L 3.5 0 Z M 1.28125 0 "/></g></g></g><g fill="#3d84a8" fill-opacity="1"><g transform="translate(179.935444, 132.803578)"><g><path d="M 5.15625 0.171875 C 4.28125 0.171875 3.515625 -0.00390625 2.859375 -0.359375 C 2.203125 -0.722656 1.691406 -1.25 1.328125 -1.9375 C 0.972656 -2.625 0.796875 -3.453125 0.796875 -4.421875 C 0.796875 -5.398438 0.972656 -6.234375 1.328125 -6.921875 C 1.691406 -7.617188 2.203125 -8.144531 2.859375 -8.5 C 3.515625 -8.851562 4.28125 -9.03125 5.15625 -9.03125 C 6.019531 -9.03125 6.78125 -8.851562 7.4375 -8.5 C 8.09375 -8.144531 8.601562 -7.617188 8.96875 -6.921875 C 9.332031 -6.234375 9.515625 -5.398438 9.515625 -4.421875 C 9.515625 -3.453125 9.332031 -2.625 8.96875 -1.9375 C 8.601562 -1.25 8.09375 -0.722656 7.4375 -0.359375 C 6.78125 -0.00390625 6.019531 0.171875 5.15625 0.171875 Z M 5.15625 -1.71875 C 6.53125 -1.71875 7.21875 -2.617188 7.21875 -4.421875 C 7.21875 -5.359375 7.039062 -6.046875 6.6875 -6.484375 C 6.332031 -6.921875 5.820312 -7.140625 5.15625 -7.140625 C 3.769531 -7.140625 3.078125 -6.234375 3.078125 -4.421875 C 3.078125 -2.617188 3.769531 -1.71875 5.15625 -1.71875 Z M 5.15625 -1.71875 "/></g></g></g><g fill="#3d84a8" fill-opacity="1"><g transform="translate(190.2371, 132.803578)"><g><path d="M 6.1875 0.171875 C 5.0625 0.171875 4.222656 -0.25 3.671875 -1.09375 L 3.5 -1.0625 L 3.5 0 L 1.28125 0 L 1.28125 -12.421875 L 3.5 -12.421875 L 3.5 -7.8125 L 3.671875 -7.78125 C 3.972656 -8.207031 4.332031 -8.519531 4.75 -8.71875 C 5.164062 -8.925781 5.664062 -9.03125 6.25 -9.03125 C 6.957031 -9.03125 7.578125 -8.859375 8.109375 -8.515625 C 8.648438 -8.179688 9.070312 -7.671875 9.375 -6.984375 C 9.675781 -6.296875 9.828125 -5.441406 9.828125 -4.421875 C 9.828125 -3.421875 9.671875 -2.578125 9.359375 -1.890625 C 9.046875 -1.203125 8.613281 -0.6875 8.0625 -0.34375 C 7.519531 0 6.894531 0.171875 6.1875 0.171875 Z M 5.515625 -1.71875 C 6.171875 -1.71875 6.671875 -1.9375 7.015625 -2.375 C 7.359375 -2.8125 7.53125 -3.492188 7.53125 -4.421875 C 7.53125 -5.359375 7.359375 -6.046875 7.015625 -6.484375 C 6.671875 -6.921875 6.171875 -7.140625 5.515625 -7.140625 C 4.890625 -7.140625 4.394531 -6.914062 4.03125 -6.46875 C 3.664062 -6.019531 3.484375 -5.335938 3.484375 -4.421875 C 3.484375 -3.515625 3.664062 -2.835938 4.03125 -2.390625 C 4.394531 -1.941406 4.890625 -1.71875 5.515625 -1.71875 Z M 5.515625 -1.71875 "/></g></g></g><g fill="#3d84a8" fill-opacity="1"><g transform="translate(200.852144, 132.803578)"><g><path d="M 3.453125 0.171875 C 2.890625 0.171875 2.394531 0.0664062 1.96875 -0.140625 C 1.550781 -0.347656 1.226562 -0.65625 1 -1.0625 C 0.78125 -1.46875 0.671875 -1.953125 0.671875 -2.515625 C 0.671875 -3.046875 0.78125 -3.488281 1 -3.84375 C 1.226562 -4.195312 1.578125 -4.488281 2.046875 -4.71875 C 2.523438 -4.945312 3.144531 -5.125 3.90625 -5.25 C 4.4375 -5.332031 4.835938 -5.425781 5.109375 -5.53125 C 5.390625 -5.632812 5.578125 -5.75 5.671875 -5.875 C 5.765625 -6 5.8125 -6.160156 5.8125 -6.359375 C 5.8125 -6.640625 5.710938 -6.851562 5.515625 -7 C 5.316406 -7.15625 4.988281 -7.234375 4.53125 -7.234375 C 4.039062 -7.234375 3.570312 -7.125 3.125 -6.90625 C 2.675781 -6.6875 2.289062 -6.398438 1.96875 -6.046875 L 1.8125 -6.046875 L 0.875 -7.453125 C 1.320312 -7.941406 1.867188 -8.328125 2.515625 -8.609375 C 3.171875 -8.890625 3.878906 -9.03125 4.640625 -9.03125 C 5.816406 -9.03125 6.664062 -8.78125 7.1875 -8.28125 C 7.71875 -7.78125 7.984375 -7.070312 7.984375 -6.15625 L 7.984375 -2.3125 C 7.984375 -1.914062 8.15625 -1.71875 8.5 -1.71875 C 8.632812 -1.71875 8.765625 -1.742188 8.890625 -1.796875 L 9 -1.765625 L 9.171875 -0.203125 C 9.046875 -0.128906 8.875 -0.0664062 8.65625 -0.015625 C 8.4375 0.0351562 8.191406 0.0625 7.921875 0.0625 C 7.398438 0.0625 6.988281 -0.0351562 6.6875 -0.234375 C 6.394531 -0.441406 6.179688 -0.765625 6.046875 -1.203125 L 5.875 -1.21875 C 5.445312 -0.289062 4.640625 0.171875 3.453125 0.171875 Z M 4.15625 -1.5 C 4.675781 -1.5 5.085938 -1.671875 5.390625 -2.015625 C 5.703125 -2.359375 5.859375 -2.835938 5.859375 -3.453125 L 5.859375 -4.359375 L 5.703125 -4.390625 C 5.566406 -4.273438 5.390625 -4.179688 5.171875 -4.109375 C 4.960938 -4.046875 4.648438 -3.976562 4.234375 -3.90625 C 3.753906 -3.820312 3.410156 -3.679688 3.203125 -3.484375 C 2.992188 -3.296875 2.890625 -3.019531 2.890625 -2.65625 C 2.890625 -2.28125 3 -1.992188 3.21875 -1.796875 C 3.445312 -1.597656 3.757812 -1.5 4.15625 -1.5 Z M 4.15625 -1.5 "/></g></g></g><g fill="#3d84a8" fill-opacity="1"><g transform="translate(210.197562, 132.803578)"><g><path d="M 6.1875 0.171875 C 5.0625 0.171875 4.222656 -0.25 3.671875 -1.09375 L 3.5 -1.0625 L 3.5 0 L 1.28125 0 L 1.28125 -12.421875 L 3.5 -12.421875 L 3.5 -7.8125 L 3.671875 -7.78125 C 3.972656 -8.207031 4.332031 -8.519531 4.75 -8.71875 C 5.164062 -8.925781 5.664062 -9.03125 6.25 -9.03125 C 6.957031 -9.03125 7.578125 -8.859375 8.109375 -8.515625 C 8.648438 -8.179688 9.070312 -7.671875 9.375 -6.984375 C 9.675781 -6.296875 9.828125 -5.441406 9.828125 -4.421875 C 9.828125 -3.421875 9.671875 -2.578125 9.359375 -1.890625 C 9.046875 -1.203125 8.613281 -0.6875 8.0625 -0.34375 C 7.519531 0 6.894531 0.171875 6.1875 0.171875 Z M 5.515625 -1.71875 C 6.171875 -1.71875 6.671875 -1.9375 7.015625 -2.375 C 7.359375 -2.8125 7.53125 -3.492188 7.53125 -4.421875 C 7.53125 -5.359375 7.359375 -6.046875 7.015625 -6.484375 C 6.671875 -6.921875 6.171875 -7.140625 5.515625 -7.140625 C 4.890625 -7.140625 4.394531 -6.914062 4.03125 -6.46875 C 3.664062 -6.019531 3.484375 -5.335938 3.484375 -4.421875 C 3.484375 -3.515625 3.664062 -2.835938 4.03125 -2.390625 C 4.394531 -1.941406 4.890625 -1.71875 5.515625 -1.71875 Z M 5.515625 -1.71875 "/></g></g></g><g fill="#3d84a8" fill-opacity="1"><g transform="translate(220.812607, 132.803578)"><g><path d="M 2.390625 -9.921875 C 1.984375 -9.921875 1.65625 -10.039062 1.40625 -10.28125 C 1.15625 -10.53125 1.03125 -10.847656 1.03125 -11.234375 C 1.03125 -11.609375 1.15625 -11.914062 1.40625 -12.15625 C 1.65625 -12.40625 1.984375 -12.53125 2.390625 -12.53125 C 2.648438 -12.53125 2.882812 -12.472656 3.09375 -12.359375 C 3.3125 -12.242188 3.476562 -12.085938 3.59375 -11.890625 C 3.707031 -11.703125 3.765625 -11.484375 3.765625 -11.234375 C 3.765625 -10.984375 3.707031 -10.757812 3.59375 -10.5625 C 3.476562 -10.363281 3.3125 -10.207031 3.09375 -10.09375 C 2.882812 -9.976562 2.648438 -9.921875 2.390625 -9.921875 Z M 1.28125 0 L 1.28125 -8.859375 L 3.5 -8.859375 L 3.5 0 Z M 1.28125 0 "/></g></g></g><g fill="#3d84a8" fill-opacity="1"><g transform="translate(225.585761, 132.803578)"><g><path d="M 3.671875 0.171875 C 2.878906 0.171875 2.269531 -0.0390625 1.84375 -0.46875 C 1.425781 -0.90625 1.21875 -1.5625 1.21875 -2.4375 L 1.21875 -12.421875 L 3.453125 -12.421875 L 3.453125 -2.53125 C 3.453125 -1.988281 3.675781 -1.71875 4.125 -1.71875 C 4.25 -1.71875 4.382812 -1.738281 4.53125 -1.78125 L 4.640625 -1.75 L 4.84375 -0.046875 C 4.71875 0.0234375 4.550781 0.078125 4.34375 0.109375 C 4.144531 0.148438 3.921875 0.171875 3.671875 0.171875 Z M 3.671875 0.171875 "/></g></g></g><g fill="#3d84a8" fill-opacity="1"><g transform="translate(230.680339, 132.803578)"><g><path d="M 2.390625 -9.921875 C 1.984375 -9.921875 1.65625 -10.039062 1.40625 -10.28125 C 1.15625 -10.53125 1.03125 -10.847656 1.03125 -11.234375 C 1.03125 -11.609375 1.15625 -11.914062 1.40625 -12.15625 C 1.65625 -12.40625 1.984375 -12.53125 2.390625 -12.53125 C 2.648438 -12.53125 2.882812 -12.472656 3.09375 -12.359375 C 3.3125 -12.242188 3.476562 -12.085938 3.59375 -11.890625 C 3.707031 -11.703125 3.765625 -11.484375 3.765625 -11.234375 C 3.765625 -10.984375 3.707031 -10.757812 3.59375 -10.5625 C 3.476562 -10.363281 3.3125 -10.207031 3.09375 -10.09375 C 2.882812 -9.976562 2.648438 -9.921875 2.390625 -9.921875 Z M 1.28125 0 L 1.28125 -8.859375 L 3.5 -8.859375 L 3.5 0 Z M 1.28125 0 "/></g></g></g><g fill="#3d84a8" fill-opacity="1"><g transform="translate(235.453493, 132.803578)"><g><path d="M 6.109375 -2.109375 L 6.6875 -0.46875 C 6.445312 -0.269531 6.144531 -0.113281 5.78125 0 C 5.414062 0.113281 5.003906 0.171875 4.546875 0.171875 C 3.585938 0.171875 2.859375 -0.0859375 2.359375 -0.609375 C 1.859375 -1.128906 1.609375 -1.890625 1.609375 -2.890625 L 1.609375 -7.109375 L 0.265625 -7.109375 L 0.265625 -8.875 L 1.609375 -8.875 L 1.609375 -10.59375 L 3.84375 -10.953125 L 3.84375 -8.875 L 6.359375 -8.875 L 6.359375 -7.109375 L 3.84375 -7.109375 L 3.84375 -3.046875 C 3.84375 -2.609375 3.929688 -2.289062 4.109375 -2.09375 C 4.296875 -1.894531 4.5625 -1.796875 4.90625 -1.796875 C 5.300781 -1.796875 5.644531 -1.898438 5.9375 -2.109375 Z M 6.109375 -2.109375 "/></g></g></g><g fill="#3d84a8" fill-opacity="1"><g transform="translate(242.340013, 132.803578)"><g><path d="M 2.390625 -9.921875 C 1.984375 -9.921875 1.65625 -10.039062 1.40625 -10.28125 C 1.15625 -10.53125 1.03125 -10.847656 1.03125 -11.234375 C 1.03125 -11.609375 1.15625 -11.914062 1.40625 -12.15625 C 1.65625 -12.40625 1.984375 -12.53125 2.390625 -12.53125 C 2.648438 -12.53125 2.882812 -12.472656 3.09375 -12.359375 C 3.3125 -12.242188 3.476562 -12.085938 3.59375 -11.890625 C 3.707031 -11.703125 3.765625 -11.484375 3.765625 -11.234375 C 3.765625 -10.984375 3.707031 -10.757812 3.59375 -10.5625 C 3.476562 -10.363281 3.3125 -10.207031 3.09375 -10.09375 C 2.882812 -9.976562 2.648438 -9.921875 2.390625 -9.921875 Z M 1.28125 0 L 1.28125 -8.859375 L 3.5 -8.859375 L 3.5 0 Z M 1.28125 0 "/></g></g></g><g fill="#3d84a8" fill-opacity="1"><g transform="translate(247.113167, 132.803578)"><g><path d="M 8.75 -3.921875 L 3.0625 -3.921875 C 3.125 -3.148438 3.34375 -2.585938 3.71875 -2.234375 C 4.09375 -1.890625 4.601562 -1.71875 5.25 -1.71875 C 5.757812 -1.71875 6.171875 -1.8125 6.484375 -2 C 6.804688 -2.195312 7.0625 -2.488281 7.25 -2.875 L 7.421875 -2.875 L 8.90625 -1.921875 C 8.613281 -1.296875 8.175781 -0.789062 7.59375 -0.40625 C 7.007812 -0.0195312 6.226562 0.171875 5.25 0.171875 C 4.332031 0.171875 3.539062 0 2.875 -0.34375 C 2.207031 -0.695312 1.691406 -1.21875 1.328125 -1.90625 C 0.972656 -2.59375 0.796875 -3.429688 0.796875 -4.421875 C 0.796875 -5.429688 0.984375 -6.28125 1.359375 -6.96875 C 1.742188 -7.664062 2.257812 -8.179688 2.90625 -8.515625 C 3.550781 -8.859375 4.28125 -9.03125 5.09375 -9.03125 C 6.34375 -9.03125 7.300781 -8.695312 7.96875 -8.03125 C 8.632812 -7.363281 8.96875 -6.390625 8.96875 -5.109375 C 8.96875 -4.640625 8.953125 -4.28125 8.921875 -4.03125 Z M 6.84375 -5.359375 C 6.820312 -6.035156 6.664062 -6.523438 6.375 -6.828125 C 6.082031 -7.140625 5.65625 -7.296875 5.09375 -7.296875 C 3.96875 -7.296875 3.304688 -6.648438 3.109375 -5.359375 Z M 6.84375 -5.359375 "/></g></g></g><g fill="#3d84a8" fill-opacity="1"><g transform="translate(256.747867, 132.803578)"><g><path d="M 4.140625 0.171875 C 3.535156 0.171875 2.984375 0.101562 2.484375 -0.03125 C 1.984375 -0.175781 1.550781 -0.375 1.1875 -0.625 C 0.832031 -0.875 0.570312 -1.160156 0.40625 -1.484375 L 1.640625 -2.8125 L 1.8125 -2.8125 C 2.101562 -2.414062 2.445312 -2.117188 2.84375 -1.921875 C 3.25 -1.722656 3.6875 -1.625 4.15625 -1.625 C 4.59375 -1.625 4.921875 -1.703125 5.140625 -1.859375 C 5.359375 -2.015625 5.46875 -2.238281 5.46875 -2.53125 C 5.46875 -2.757812 5.390625 -2.945312 5.234375 -3.09375 C 5.078125 -3.25 4.820312 -3.367188 4.46875 -3.453125 L 3.296875 -3.734375 C 2.410156 -3.941406 1.765625 -4.257812 1.359375 -4.6875 C 0.960938 -5.125 0.765625 -5.675781 0.765625 -6.34375 C 0.765625 -6.894531 0.90625 -7.375 1.1875 -7.78125 C 1.46875 -8.1875 1.863281 -8.492188 2.375 -8.703125 C 2.882812 -8.921875 3.476562 -9.03125 4.15625 -9.03125 C 4.957031 -9.03125 5.617188 -8.914062 6.140625 -8.6875 C 6.671875 -8.457031 7.082031 -8.148438 7.375 -7.765625 L 6.1875 -6.46875 L 6.03125 -6.46875 C 5.78125 -6.75 5.5 -6.953125 5.1875 -7.078125 C 4.882812 -7.210938 4.539062 -7.28125 4.15625 -7.28125 C 3.28125 -7.28125 2.84375 -7.003906 2.84375 -6.453125 C 2.84375 -6.222656 2.921875 -6.035156 3.078125 -5.890625 C 3.242188 -5.753906 3.535156 -5.640625 3.953125 -5.546875 L 5.046875 -5.296875 C 5.941406 -5.109375 6.597656 -4.800781 7.015625 -4.375 C 7.429688 -3.945312 7.640625 -3.375 7.640625 -2.65625 C 7.640625 -2.09375 7.5 -1.597656 7.21875 -1.171875 C 6.9375 -0.742188 6.535156 -0.410156 6.015625 -0.171875 C 5.492188 0.0546875 4.867188 0.171875 4.140625 0.171875 Z M 4.140625 0.171875 "/></g></g></g><g fill="#3d84a8" fill-opacity="1"><g transform="translate(264.920085, 132.803578)"><g/></g></g><g fill="#3d84a8" fill-opacity="1"><g transform="translate(268.801286, 132.803578)"><g><path d="M 2.390625 -9.921875 C 1.984375 -9.921875 1.65625 -10.039062 1.40625 -10.28125 C 1.15625 -10.53125 1.03125 -10.847656 1.03125 -11.234375 C 1.03125 -11.609375 1.15625 -11.914062 1.40625 -12.15625 C 1.65625 -12.40625 1.984375 -12.53125 2.390625 -12.53125 C 2.648438 -12.53125 2.882812 -12.472656 3.09375 -12.359375 C 3.3125 -12.242188 3.476562 -12.085938 3.59375 -11.890625 C 3.707031 -11.703125 3.765625 -11.484375 3.765625 -11.234375 C 3.765625 -10.984375 3.707031 -10.757812 3.59375 -10.5625 C 3.476562 -10.363281 3.3125 -10.207031 3.09375 -10.09375 C 2.882812 -9.976562 2.648438 -9.921875 2.390625 -9.921875 Z M 1.28125 0 L 1.28125 -8.859375 L 3.5 -8.859375 L 3.5 0 Z M 1.28125 0 "/></g></g></g><g fill="#3d84a8" fill-opacity="1"><g transform="translate(273.574441, 132.803578)"><g><path d="M 1.28125 0 L 1.28125 -8.859375 L 3.421875 -8.859375 L 3.421875 -7.5625 L 3.578125 -7.515625 C 4.128906 -8.523438 5.023438 -9.03125 6.265625 -9.03125 C 7.285156 -9.03125 8.035156 -8.75 8.515625 -8.1875 C 8.992188 -7.632812 9.234375 -6.828125 9.234375 -5.765625 L 9.234375 0 L 7.015625 0 L 7.015625 -5.484375 C 7.015625 -6.078125 6.894531 -6.503906 6.65625 -6.765625 C 6.425781 -7.023438 6.050781 -7.15625 5.53125 -7.15625 C 4.894531 -7.15625 4.394531 -6.945312 4.03125 -6.53125 C 3.675781 -6.113281 3.5 -5.46875 3.5 -4.59375 L 3.5 0 Z M 1.28125 0 "/></g></g></g><g fill="#3d84a8" fill-opacity="1"><g transform="translate(283.956452, 132.803578)"><g><path d="M 4.140625 0.171875 C 3.535156 0.171875 2.984375 0.101562 2.484375 -0.03125 C 1.984375 -0.175781 1.550781 -0.375 1.1875 -0.625 C 0.832031 -0.875 0.570312 -1.160156 0.40625 -1.484375 L 1.640625 -2.8125 L 1.8125 -2.8125 C 2.101562 -2.414062 2.445312 -2.117188 2.84375 -1.921875 C 3.25 -1.722656 3.6875 -1.625 4.15625 -1.625 C 4.59375 -1.625 4.921875 -1.703125 5.140625 -1.859375 C 5.359375 -2.015625 5.46875 -2.238281 5.46875 -2.53125 C 5.46875 -2.757812 5.390625 -2.945312 5.234375 -3.09375 C 5.078125 -3.25 4.820312 -3.367188 4.46875 -3.453125 L 3.296875 -3.734375 C 2.410156 -3.941406 1.765625 -4.257812 1.359375 -4.6875 C 0.960938 -5.125 0.765625 -5.675781 0.765625 -6.34375 C 0.765625 -6.894531 0.90625 -7.375 1.1875 -7.78125 C 1.46875 -8.1875 1.863281 -8.492188 2.375 -8.703125 C 2.882812 -8.921875 3.476562 -9.03125 4.15625 -9.03125 C 4.957031 -9.03125 5.617188 -8.914062 6.140625 -8.6875 C 6.671875 -8.457031 7.082031 -8.148438 7.375 -7.765625 L 6.1875 -6.46875 L 6.03125 -6.46875 C 5.78125 -6.75 5.5 -6.953125 5.1875 -7.078125 C 4.882812 -7.210938 4.539062 -7.28125 4.15625 -7.28125 C 3.28125 -7.28125 2.84375 -7.003906 2.84375 -6.453125 C 2.84375 -6.222656 2.921875 -6.035156 3.078125 -5.890625 C 3.242188 -5.753906 3.535156 -5.640625 3.953125 -5.546875 L 5.046875 -5.296875 C 5.941406 -5.109375 6.597656 -4.800781 7.015625 -4.375 C 7.429688 -3.945312 7.640625 -3.375 7.640625 -2.65625 C 7.640625 -2.09375 7.5 -1.597656 7.21875 -1.171875 C 6.9375 -0.742188 6.535156 -0.410156 6.015625 -0.171875 C 5.492188 0.0546875 4.867188 0.171875 4.140625 0.171875 Z M 4.140625 0.171875 "/></g></g></g><g fill="#3d84a8" fill-opacity="1"><g transform="translate(292.12867, 132.803578)"><g><path d="M 6.109375 -2.109375 L 6.6875 -0.46875 C 6.445312 -0.269531 6.144531 -0.113281 5.78125 0 C 5.414062 0.113281 5.003906 0.171875 4.546875 0.171875 C 3.585938 0.171875 2.859375 -0.0859375 2.359375 -0.609375 C 1.859375 -1.128906 1.609375 -1.890625 1.609375 -2.890625 L 1.609375 -7.109375 L 0.265625 -7.109375 L 0.265625 -8.875 L 1.609375 -8.875 L 1.609375 -10.59375 L 3.84375 -10.953125 L 3.84375 -8.875 L 6.359375 -8.875 L 6.359375 -7.109375 L 3.84375 -7.109375 L 3.84375 -3.046875 C 3.84375 -2.609375 3.929688 -2.289062 4.109375 -2.09375 C 4.296875 -1.894531 4.5625 -1.796875 4.90625 -1.796875 C 5.300781 -1.796875 5.644531 -1.898438 5.9375 -2.109375 Z M 6.109375 -2.109375 "/></g></g></g><g fill="#3d84a8" fill-opacity="1"><g transform="translate(299.015191, 132.803578)"><g><path d="M 3.453125 0.171875 C 2.890625 0.171875 2.394531 0.0664062 1.96875 -0.140625 C 1.550781 -0.347656 1.226562 -0.65625 1 -1.0625 C 0.78125 -1.46875 0.671875 -1.953125 0.671875 -2.515625 C 0.671875 -3.046875 0.78125 -3.488281 1 -3.84375 C 1.226562 -4.195312 1.578125 -4.488281 2.046875 -4.71875 C 2.523438 -4.945312 3.144531 -5.125 3.90625 -5.25 C 4.4375 -5.332031 4.835938 -5.425781 5.109375 -5.53125 C 5.390625 -5.632812 5.578125 -5.75 5.671875 -5.875 C 5.765625 -6 5.8125 -6.160156 5.8125 -6.359375 C 5.8125 -6.640625 5.710938 -6.851562 5.515625 -7 C 5.316406 -7.15625 4.988281 -7.234375 4.53125 -7.234375 C 4.039062 -7.234375 3.570312 -7.125 3.125 -6.90625 C 2.675781 -6.6875 2.289062 -6.398438 1.96875 -6.046875 L 1.8125 -6.046875 L 0.875 -7.453125 C 1.320312 -7.941406 1.867188 -8.328125 2.515625 -8.609375 C 3.171875 -8.890625 3.878906 -9.03125 4.640625 -9.03125 C 5.816406 -9.03125 6.664062 -8.78125 7.1875 -8.28125 C 7.71875 -7.78125 7.984375 -7.070312 7.984375 -6.15625 L 7.984375 -2.3125 C 7.984375 -1.914062 8.15625 -1.71875 8.5 -1.71875 C 8.632812 -1.71875 8.765625 -1.742188 8.890625 -1.796875 L 9 -1.765625 L 9.171875 -0.203125 C 9.046875 -0.128906 8.875 -0.0664062 8.65625 -0.015625 C 8.4375 0.0351562 8.191406 0.0625 7.921875 0.0625 C 7.398438 0.0625 6.988281 -0.0351562 6.6875 -0.234375 C 6.394531 -0.441406 6.179688 -0.765625 6.046875 -1.203125 L 5.875 -1.21875 C 5.445312 -0.289062 4.640625 0.171875 3.453125 0.171875 Z M 4.15625 -1.5 C 4.675781 -1.5 5.085938 -1.671875 5.390625 -2.015625 C 5.703125 -2.359375 5.859375 -2.835938 5.859375 -3.453125 L 5.859375 -4.359375 L 5.703125 -4.390625 C 5.566406 -4.273438 5.390625 -4.179688 5.171875 -4.109375 C 4.960938 -4.046875 4.648438 -3.976562 4.234375 -3.90625 C 3.753906 -3.820312 3.410156 -3.679688 3.203125 -3.484375 C 2.992188 -3.296875 2.890625 -3.019531 2.890625 -2.65625 C 2.890625 -2.28125 3 -1.992188 3.21875 -1.796875 C 3.445312 -1.597656 3.757812 -1.5 4.15625 -1.5 Z M 4.15625 -1.5 "/></g></g></g><g fill="#3d84a8" fill-opacity="1"><g transform="translate(308.360608, 132.803578)"><g><path d="M 1.28125 0 L 1.28125 -8.859375 L 3.421875 -8.859375 L 3.421875 -7.5625 L 3.578125 -7.515625 C 4.128906 -8.523438 5.023438 -9.03125 6.265625 -9.03125 C 7.285156 -9.03125 8.035156 -8.75 8.515625 -8.1875 C 8.992188 -7.632812 9.234375 -6.828125 9.234375 -5.765625 L 9.234375 0 L 7.015625 0 L 7.015625 -5.484375 C 7.015625 -6.078125 6.894531 -6.503906 6.65625 -6.765625 C 6.425781 -7.023438 6.050781 -7.15625 5.53125 -7.15625 C 4.894531 -7.15625 4.394531 -6.945312 4.03125 -6.53125 C 3.675781 -6.113281 3.5 -5.46875 3.5 -4.59375 L 3.5 0 Z M 1.28125 0 "/></g></g></g><g fill="#3d84a8" fill-opacity="1"><g transform="translate(318.74262, 132.803578)"><g><path d="M 6.109375 -2.109375 L 6.6875 -0.46875 C 6.445312 -0.269531 6.144531 -0.113281 5.78125 0 C 5.414062 0.113281 5.003906 0.171875 4.546875 0.171875 C 3.585938 0.171875 2.859375 -0.0859375 2.359375 -0.609375 C 1.859375 -1.128906 1.609375 -1.890625 1.609375 -2.890625 L 1.609375 -7.109375 L 0.265625 -7.109375 L 0.265625 -8.875 L 1.609375 -8.875 L 1.609375 -10.59375 L 3.84375 -10.953125 L 3.84375 -8.875 L 6.359375 -8.875 L 6.359375 -7.109375 L 3.84375 -7.109375 L 3.84375 -3.046875 C 3.84375 -2.609375 3.929688 -2.289062 4.109375 -2.09375 C 4.296875 -1.894531 4.5625 -1.796875 4.90625 -1.796875 C 5.300781 -1.796875 5.644531 -1.898438 5.9375 -2.109375 Z M 6.109375 -2.109375 "/></g></g></g><g fill="#3d84a8" fill-opacity="1"><g transform="translate(325.62914, 132.803578)"><g><path d="M 3.671875 0.171875 C 2.878906 0.171875 2.269531 -0.0390625 1.84375 -0.46875 C 1.425781 -0.90625 1.21875 -1.5625 1.21875 -2.4375 L 1.21875 -12.421875 L 3.453125 -12.421875 L 3.453125 -2.53125 C 3.453125 -1.988281 3.675781 -1.71875 4.125 -1.71875 C 4.25 -1.71875 4.382812 -1.738281 4.53125 -1.78125 L 4.640625 -1.75 L 4.84375 -0.046875 C 4.71875 0.0234375 4.550781 0.078125 4.34375 0.109375 C 4.144531 0.148438 3.921875 0.171875 3.671875 0.171875 Z M 3.671875 0.171875 "/></g></g></g><g fill="#3d84a8" fill-opacity="1"><g transform="translate(330.723719, 132.803578)"><g><path d="M 1.953125 3.765625 C 1.578125 3.765625 1.234375 3.734375 0.921875 3.671875 C 0.617188 3.609375 0.367188 3.53125 0.171875 3.4375 L 0.53125 1.640625 L 0.671875 1.59375 C 0.804688 1.65625 0.972656 1.707031 1.171875 1.75 C 1.367188 1.800781 1.570312 1.828125 1.78125 1.828125 C 2.144531 1.828125 2.441406 1.78125 2.671875 1.6875 C 2.910156 1.59375 3.113281 1.4375 3.28125 1.21875 C 3.445312 1 3.597656 0.695312 3.734375 0.3125 L 0.1875 -8.859375 L 2.515625 -8.859375 L 4.71875 -2.703125 L 4.921875 -2.703125 L 7.0625 -8.859375 L 9.328125 -8.859375 L 5.765625 0.546875 C 5.484375 1.304688 5.171875 1.914062 4.828125 2.375 C 4.492188 2.84375 4.09375 3.191406 3.625 3.421875 C 3.164062 3.648438 2.609375 3.765625 1.953125 3.765625 Z M 1.953125 3.765625 "/></g></g></g><g clip-path="url(#a79921b6c9)"><path stroke-linecap="round" transform="matrix(0.314188, -0.321689, 0.321689, 0.314188, 0.920151, 103.716369)" fill="none" stroke-linejoin="miter" d="M 6.999369 6.999999 L 203.424584 7.001223 " stroke="#3d84a8" stroke-width="14" stroke-opacity="1" stroke-miterlimit="4"/></g><g clip-path="url(#fccc02a544)"><g clip-path="url(#798c8d8dcc)"><path fill="#3d84a8" d="M 38.585938 74.488281 L 70.382812 74.488281 L 70.382812 107.027344 L 38.585938 107.027344 Z M 38.585938 74.488281 " fill-opacity="1" fill-rule="nonzero"/></g></g><g clip-path="url(#8dd7b2bdad)"><g clip-path="url(#f3b1bb67bf)"><path fill="#3d84a8" d="M 2.074219 37.105469 L 33.449219 37.105469 L 33.449219 69.210938 L 2.074219 69.210938 Z M 2.074219 37.105469 " fill-opacity="1" fill-rule="nonzero"/></g></g></svg>